<?xml version="1.0" encoding="UTF-8" standalone="no"?>
<!-- Generator: Adobe Illustrator 21.0.0, SVG Export Plug-In . SVG Version: 6.00 Build 0)  -->

<svg
   version="1.0"
   id="Layer_1"
   x="0px"
   y="0px"
   viewBox="0 0 660 660"
   xml:space="preserve"
   sodipodi:docname="WindowsUpdate.svg"
   inkscape:version="1.4 (86a8ad7, 2024-10-11)"
   width="660"
   height="660"
   xmlns:inkscape="http://www.inkscape.org/namespaces/inkscape"
   xmlns:sodipodi="http://sodipodi.sourceforge.net/DTD/sodipodi-0.dtd"
   xmlns="http://www.w3.org/2000/svg"
   xmlns:svg="http://www.w3.org/2000/svg"><defs
   id="defs7">
	
	
	
	
	

		
		
		
		
	</defs><sodipodi:namedview
   id="namedview7"
   pagecolor="#ffffff"
   bordercolor="#666666"
   borderopacity="1.0"
   inkscape:showpageshadow="2"
   inkscape:pageopacity="0.0"
   inkscape:pagecheckerboard="0"
   inkscape:deskcolor="#d1d1d1"
   inkscape:zoom="0.88579016"
   inkscape:cx="357.3081"
   inkscape:cy="320.05323"
   inkscape:window-width="1920"
   inkscape:window-height="1009"
   inkscape:window-x="-8"
   inkscape:window-y="396"
   inkscape:window-maximized="1"
   inkscape:current-layer="Layer_1" />
<style
   type="text/css"
   id="style1">
	.st0{fill:none;stroke:#00C853;stroke-width:40;stroke-miterlimit:10;}
	.st1{fill:none;}
	.st2{fill:#00C853;}
</style>
<polygon
   class="st0"
   points="630,57 630,592 630,616 29.9,535.7 29.9,521.7 31.9,119.4 32.5,102 630,26 "
   id="polygon1"
   style="stroke:#0078d4;stroke-opacity:1"
   transform="translate(0.05,8.9250738)" />
<path
   class="st2"
   d="m 312,419 c -47.3,0 -86.7,-33.5 -96,-78 h -41.6 c 9.7,67.3 67.6,119 137.6,119 70,0 127.9,-51.7 137.6,-119 H 408 c -9.3,44.5 -48.7,78 -96,78 z"
   id="path3"
   style="fill:#0078d4;fill-opacity:1" /><path
   class="st2"
   d="m 312,223 c 47.3,0 86.7,33.5 96,78 h 41.6 C 439.9,233.7 382,182 312,182 242,182 184.1,233.7 174.4,301 H 216 c 9.3,-44.5 48.7,-78 96,-78 z"
   id="path4"
   style="fill:#0078d4;fill-opacity:1" /><rect
   x="172"
   y="341"
   class="st2"
   width="39"
   height="121"
   id="rect4"
   style="fill:#0078d4;fill-opacity:1" /><rect
   x="411"
   y="182"
   class="st2"
   width="39"
   height="121"
   id="rect5"
   style="fill:#0078d4;fill-opacity:1" /><rect
   x="-303"
   y="329"
   transform="rotate(-90)"
   class="st2"
   width="39"
   height="121"
   id="rect6"
   style="fill:#0078d4;fill-opacity:1" /><rect
   x="-380"
   y="172"
   transform="rotate(-90)"
   class="st2"
   width="39"
   height="121"
   id="rect7"
   style="fill:#0078d4;fill-opacity:1" />
</svg>
